<?xml version="1.0" standalone="no"?>
<!DOCTYPE svg PUBLIC "-//W3C//DTD SVG 20010904//EN"
 "http://www.w3.org/TR/2001/REC-SVG-20010904/DTD/svg10.dtd">
<svg version="1.0" xmlns="http://www.w3.org/2000/svg"
 width="700.000000pt" height="700.000000pt" viewBox="0 0 700.000000 700.000000"
 preserveAspectRatio="xMidYMid meet">
<metadata>
Created by potrace 1.11, written by Peter Selinger 2001-2013
</metadata>
<g transform="translate(0.000000,700.000000) scale(0.100000,-0.100000)"
fill="#000000" stroke="none">
<path d="M3378 6415 c-2 -1 -50 -5 -108 -9 -124 -8 -139 -10 -295 -37 -126
-23 -336 -76 -420 -108 -176 -66 -234 -91 -355 -151 -292 -145 -524 -313 -760
-550 -150 -150 -254 -275 -354 -425 -36 -55 -70 -105 -75 -111 -17 -21 -117
-212 -163 -310 -112 -242 -207 -566 -234 -799 -4 -27 -8 -52 -9 -55 -8 -13
-19 -227 -19 -360 0 -373 52 -665 181 -1015 388 -1054 1371 -1800 2493 -1892
149 -12 562 -5 589 11 3 2 35 7 70 10 36 4 67 8 70 10 3 2 27 7 52 10 117 16
376 92 552 162 367 148 694 366 981 657 455 461 723 1010 821 1680 18 128 25
437 12 597 -68 876 -538 1684 -1267 2181 -166 114 -389 233 -545 293 -38 15
-79 31 -90 36 -45 20 -253 81 -358 104 -112 25 -265 49 -387 62 -62 6 -376 14
-382 9z m257 -589 c72 -3 141 -7 155 -10 31 -5 120 -19 140 -22 32 -3 228 -54
285 -73 139 -46 187 -66 320 -131 123 -61 317 -180 386 -238 187 -156 264
-231 376 -365 219 -263 397 -616 469 -927 29 -128 40 -190 49 -270 3 -30 8
-73 10 -95 6 -46 6 -355 0 -400 -2 -16 -7 -59 -11 -95 -5 -36 -8 -67 -9 -70
-1 -3 -5 -25 -9 -50 -4 -25 -19 -89 -32 -144 -178 -713 -681 -1299 -1364
-1589 -210 -88 -419 -140 -695 -172 -63 -7 -343 -8 -410 0 -95 10 -200 26
-270 41 -38 9 -77 17 -85 19 -40 8 -113 30 -195 57 -392 133 -761 387 -1031
709 -311 371 -493 810 -539 1304 -7 70 -7 346 0 403 19 155 33 245 47 297 5
22 12 48 14 59 11 58 59 207 99 307 251 624 775 1122 1410 1337 198 67 403
107 605 119 58 3 106 7 108 8 1 1 12 1 25 -1 12 -2 81 -5 152 -8z"/>
<path d="M3689 5246 c-2 -2 -22 -6 -44 -10 -221 -32 -451 -181 -579 -374 -38
-58 -55 -91 -97 -187 -12 -28 -36 -131 -45 -190 -4 -27 -8 -194 -8 -370 l-1
-320 -185 -5 c-208 -6 -230 -12 -303 -79 -125 -116 -121 -316 10 -431 68 -59
116 -70 314 -70 l167 0 -2 -172 c-2 -111 -7 -187 -15 -213 -38 -114 -143 -190
-277 -200 -179 -14 -297 -141 -288 -310 7 -110 71 -201 173 -249 46 -21 51
-21 991 -21 940 0 945 0 991 21 65 30 114 78 143 137 74 151 11 324 -144 396
l-55 25 -490 1 c-419 1 -490 4 -487 16 8 32 31 146 36 174 2 17 5 112 5 213
l1 182 168 0 c92 0 183 5 202 10 102 28 192 129 208 232 15 100 -28 216 -100
272 -78 59 -108 66 -300 66 l-178 0 0 306 c0 199 4 321 12 352 43 175 234 265
400 190 62 -29 97 -61 132 -121 26 -46 33 -72 42 -161 15 -159 134 -270 289
-269 119 0 219 65 267 173 33 76 28 225 -13 363 -94 315 -361 554 -684 614
-31 6 -251 14 -256 9z"/>
</g>
</svg>
